<?xml version="1.0" encoding="utf-8"?>
<!-- Generator: Adobe Illustrator 21.0.0, SVG Export Plug-In . SVG Version: 6.00 Build 0)  -->
<svg version="1.1" id="Capa_1" xmlns="http://www.w3.org/2000/svg" xmlns:xlink="http://www.w3.org/1999/xlink" x="0px" y="0px"
	 viewBox="0 0 47.3 47.3" style="enable-background:new 0 0 47.3 47.3;" xml:space="preserve">
<g>
	<g>
		<path d="M11.2,45.6c0-0.3,0.1-0.5,0.3-0.7l20.7-20.7L11.5,3.5c-0.4-0.4-0.4-0.9,0-1.3s0.9-0.4,1.3,0l21.3,21.3
			c0.4,0.4,0.4,0.9,0,1.3L12.8,46.2c-0.4,0.4-0.9,0.4-1.3,0C11.3,46,11.2,45.8,11.2,45.6z"/>
		<path d="M12.2,47.4c-0.5,0-1-0.2-1.3-0.6c-0.3-0.3-0.6-0.9-0.6-1.3c0-0.5,0.2-1,0.6-1.3l20-20l-20-20.1c-0.7-0.7-0.7-1.9,0-2.7
			c0.7-0.7,1.9-0.7,2.7,0l21.3,21.3c0.4,0.4,0.6,0.8,0.6,1.3c0,0.5-0.2,1-0.6,1.3L13.5,46.9C13.2,47.3,12.7,47.4,12.2,47.4z
			 M12.2,2.8l21.3,21.3l0,0L12.2,2.8z"/>
	</g>
</g>
</svg>
