<?xml version="1.0" encoding="utf-8"?>
<!-- Generator: Adobe Illustrator 21.0.0, SVG Export Plug-In . SVG Version: 6.00 Build 0)  -->
<svg version="1.1" id="Capa_1" xmlns="http://www.w3.org/2000/svg" xmlns:xlink="http://www.w3.org/1999/xlink" x="0px" y="0px"
	 viewBox="0 0 24 24" style="enable-background:new 0 0 24 24;" xml:space="preserve">
<style type="text/css">
	.st0{fill:#333333;}
</style>
<g>
	<path class="st0" d="M19,10c-0.5,0-0.9-0.3-1-0.8c-0.3-1.6-1.6-2.8-3.2-3.2c-0.5-0.1-0.9-0.6-0.8-1.2c0.1-0.5,0.6-0.9,1.2-0.8
		c2.4,0.5,4.3,2.3,4.7,4.7c0.1,0.5-0.2,1.1-0.8,1.2C19.1,9.9,19.1,10,19,10z"/>
</g>
<g>
	<path class="st0" d="M23,9.9c-0.5,0-0.9-0.4-1-0.9c-0.4-3.7-3.3-6.6-7.1-7.1c-0.5-0.1-0.9-0.6-0.9-1.1c0.1-0.5,0.6-0.9,1.1-0.9
		c4.7,0.5,8.3,4.1,8.8,8.8c0.1,0.5-0.3,1-0.9,1.1C23.1,9.9,23,9.9,23,9.9z"/>
</g>
<g>
	<path class="st0" d="M22,16.9v3c0,1.1-0.9,2-2,2c-0.1,0-0.1,0-0.2,0c-3.1-0.3-6-1.4-8.6-3.1c-2.4-1.5-4.5-3.6-6-6
		c-1.7-2.6-2.7-5.6-3.1-8.7C2,3.1,2.8,2.1,3.9,2C4,2,4.1,2,4.1,2h3c1,0,1.9,0.7,2,1.7c0.1,1,0.4,1.9,0.7,2.8
		c0.3,0.7,0.1,1.6-0.4,2.1L8.1,9.9c1.4,2.5,3.5,4.6,6,6l1.3-1.3c0.6-0.5,1.4-0.7,2.1-0.4c0.9,0.3,1.8,0.6,2.8,0.7
		C21.3,15,22,15.9,22,16.9z"/>
	<path class="st0" d="M20,22.9c-0.1,0-0.2,0-0.3,0c-3.2-0.4-6.4-1.5-9.1-3.2c-2.5-1.6-4.7-3.8-6.3-6.3c-1.8-2.7-2.9-5.9-3.2-9.1
		C1.1,3.5,1.3,2.7,1.8,2.1c0.5-0.6,1.2-1,2-1.1C3.9,1,4,1,4.1,1h3c0,0,0,0,0,0c1.5,0,2.8,1.1,3,2.6c0.1,0.9,0.3,1.8,0.6,2.6
		c0.4,1.1,0.1,2.3-0.7,3.2l-0.7,0.7c1.2,1.8,2.7,3.4,4.6,4.6l0.7-0.7c0.8-0.8,2.1-1.1,3.2-0.7c0.8,0.3,1.7,0.5,2.6,0.6
		c1.5,0.2,2.6,1.5,2.6,3v3c0,0.8-0.3,1.6-0.9,2.1S20.8,22.9,20,22.9C20,22.9,20,22.9,20,22.9z M7.1,3C7.1,3,7.1,3,7.1,3h-3
		C3.8,3,3.5,3.2,3.3,3.4C3.2,3.6,3.1,3.8,3.1,4.1C3.4,7,4.4,9.8,6,12.3c1.5,2.3,3.4,4.3,5.7,5.7c2.5,1.6,5.3,2.6,8.2,2.9
		c0.4,0,0.6-0.1,0.8-0.3c0.2-0.2,0.3-0.4,0.3-0.7v-3c0,0,0,0,0,0c0-0.5-0.4-0.9-0.9-1c-1-0.1-2-0.4-3-0.8c-0.4-0.1-0.8-0.1-1.1,0.2
		l-1.3,1.3c-0.3,0.3-0.8,0.4-1.2,0.2c-2.7-1.5-4.9-3.7-6.4-6.4C7,10,7.1,9.5,7.4,9.2l1.3-1.3C8.9,7.7,9,7.2,8.9,6.9
		c-0.4-1-0.6-2-0.8-3C8.1,3.4,7.6,3,7.1,3z"/>
</g>
</svg>
