<?xml version="1.0" encoding="utf-8"?>
<!-- Generator: Adobe Illustrator 21.0.0, SVG Export Plug-In . SVG Version: 6.00 Build 0)  -->
<svg version="1.1" id="Layer_1" xmlns="http://www.w3.org/2000/svg" xmlns:xlink="http://www.w3.org/1999/xlink" x="0px" y="0px"
	 viewBox="0 0 24 24" style="enable-background:new 0 0 24 24;" xml:space="preserve">
<style type="text/css">
	.st0{fill:#333333;}
</style>
<g>
	<g>
		<path class="st0" d="M21.6,5.1H2.4c-1.3,0-2.3,1-2.3,2.3v11.3c0,1.3,1,2.3,2.3,2.3h19.2c1.3,0,2.3-1,2.3-2.3V7.4
			C23.9,6.1,22.9,5.1,21.6,5.1z M21.2,6.3L12,12.2L2.8,6.3H21.2z M1.3,7.4c0-0.2,0-0.3,0.1-0.5l5.7,3.7l-5.8,7.8V7.4z M21.6,19.7
			H2.4c-0.1,0-0.3,0-0.4-0.1l6.2-8.3l3.4,2.2c0.2,0.1,0.5,0.1,0.7,0l3.4-2.2l6.2,8.3C21.9,19.7,21.7,19.7,21.6,19.7z M22.7,18.4
			l-5.8-7.8l5.7-3.7c0.1,0.1,0.1,0.3,0.1,0.5V18.4z"/>
	</g>
</g>
</svg>
